HIERARCHY
ROOT Hips
{
  OFFSET -17.0351 91.8461 -31.9157
  CHANNELS 6 Xposition Yposition Zposition Zrotation Xrotation Yrotation
  JOINT RightUpLeg
  {
    OFFSET -8.9458 -8.66707 0.101652
    CHANNELS 3 Zrotation Xrotation Yrotation
    JOINT RightLeg
    {
      OFFSET 0 -44.4227 1.3727
      CHANNELS 3 Zrotation Xrotation Yrotation
      JOINT RightFoot
      {
        OFFSET 0.253549 -42.0924 -1.46059
        CHANNELS 3 Zrotation Xrotation Yrotation
        JOINT RightToes
        {
          OFFSET 0.04 -4.41509 8.4991
          CHANNELS 3 Zrotation Xrotation Yrotation
          End Site
          {
            OFFSET -0.08 -0.137448 9.77979
          }
        }
      }
    }
  }
  JOINT Spine
  {
    OFFSET 0 11.8905 0
    CHANNELS 3 Zrotation Xrotation Yrotation
    JOINT Spine1
    {
      OFFSET 0 25.6574 0.127663
      CHANNELS 3 Zrotation Xrotation Yrotation
      JOINT HEad
      {
        OFFSET 0 8.73416 0.011341
        CHANNELS 3 Zrotation Xrotation Yrotation
        End Site
        {
          OFFSET -0.29 12.7742 2.51395
        }
      }
      JOINT LeftShoulder1
      {
        OFFSET 8.99 -0.362252 -0.22
        CHANNELS 3 Zrotation Xrotation Yrotation
        JOINT LeftArm
        {
          OFFSET 10.2827 -0.00338 0.322123
          CHANNELS 3 Zrotation Xrotation Yrotation
          JOINT LeftForeArm
          {
            OFFSET 32.7669 0.099144 -1.42434
            CHANNELS 3 Zrotation Xrotation Yrotation
            JOINT LeftHand
            {
              OFFSET 27.5643 0.085362 1.02216
              CHANNELS 3 Zrotation Xrotation Yrotation
              End Site
              {
                OFFSET 16.7443 -0.6 1.50291
              }
            }
          }
        }
      }
      JOINT RightShoulder
      {
        OFFSET -8.99 -0.362252 -0.22
        CHANNELS 3 Zrotation Xrotation Yrotation
        JOINT RightArm
        {
          OFFSET -10.2827 -0.00338 0.322123
          CHANNELS 3 Zrotation Xrotation Yrotation
          JOINT RightForeArm
          {
            OFFSET -32.8971 0.099144 -1.42434
            CHANNELS 3 Zrotation Xrotation Yrotation
            JOINT RightHand
            {
              OFFSET -27.4921 0.085362 1.02216
              CHANNELS 3 Zrotation Xrotation Yrotation
              End Site
              {
                OFFSET -16.6312 -0.6 1.50291
              }
            }
          }
        }
      }
    }
  }
  JOINT LeftUpLeg
  {
    OFFSET 8.9458 -8.66707 0.101652
    CHANNELS 3 Zrotation Xrotation Yrotation
    JOINT LeftLeg
    {
      OFFSET 0 -44.4227 1.3727
      CHANNELS 3 Zrotation Xrotation Yrotation
      JOINT LeftFoot
      {
        OFFSET -0.253549 -42.0924 -1.46059
        CHANNELS 3 Zrotation Xrotation Yrotation
        JOINT LeftToes
        {
          OFFSET -0.04 -4.41509 8.4991
          CHANNELS 3 Zrotation Xrotation Yrotation
          End Site
          {
            OFFSET 0.08 -0.047448 9.77979
          }
        }
      }
    }
  }
}
MOTION
Frames:	14
Frame Time:	0.0166667
-23.6245 95.7208 -55.7693 2.58347 -2.72569 51.6614 -11.1505 -19.3202 -2.67789 2.57212 29.4932 -2.61387 3.70653 5.44674 -0.509205 -6.32201 -29.6263 4.04431 3.68562 7.64585 -3.98587 -1.19145 14.7311 -6.87093 10.7465 -3.19846 -11.981 -3.18055e-015 1.59028e-015 -0 -72.0047 1.66404 -43.6983 -15.479 39.6907 -106.946 6.54677 9.62745 -1.04006 24.3316 -3.5163 -15.7067 64.1547 -27.8125 40.7446 -15.3271 28.4136 140.122 -5.88522 10.6181 -20.4181 21.0642 -4.70675 -4.4599 -26.8325 32.5007 18.8041 -8.675 12.2785 1.41566 26.1636 -39.2164 17.3517 
-23.7334 95.4556 -55.5459 2.63089 -2.96156 51.6299 -10.9449 -19.285 -2.28894 3.26767 29.3513 -3.62809 1.56978 9.37698 -0.293068 -9.12936 -37.8941 2.59827 3.34448 7.70958 -4.0422 -1.0639 14.9047 -7.05802 10.4986 -2.58461 -11.2853 1.59028e-015 1.59028e-015 -6.36111e-015 -73.2874 0.047484 -45.6481 -15.5962 40.1762 -107.179 6.54677 9.62745 -1.04006 23.926 -3.36068 -15.313 66.0169 -28.4487 43.2499 -16.0547 27.2441 141.457 -4.76483 10.5213 -22.0884 20.8051 -4.28255 -3.42969 -25.2492 32.5778 19.0159 -8.26854 12.7837 1.37814 28.0716 -41.8026 17.7548 
-23.7728 95.2415 -55.4342 2.73539 -3.3433 51.7189 -10.6062 -19.4744 -1.68111 3.43647 30.5802 -4.50168 2.17715 7.83223 -0.363997 -7.95193 -36.3122 3.98993 3.40786 7.75557 -4.23123 -1.13591 14.9811 -7.3914 10.874 -1.35823 -10.4161 3.53113e-031 3.18055e-015 -6.36111e-015 -75.1642 -1.66363 -46.3135 -16.0705 41.568 -107.686 6.54677 9.62745 -1.04006 23.845 -3.21022 -14.7742 67.5257 -28.9374 45.3119 -16.9567 25.7469 142.967 -2.99631 10.29 -24.1288 20.7804 -3.70754 -2.88369 -24.5022 32.6421 18.5964 -6.38515 12.7932 1.04302 28.8498 -42.0843 18.7966 
-23.7488 94.9792 -55.3029 3.02251 -3.73983 51.9351 -10.6258 -19.133 -1.39359 4.06054 30.831 -5.55613 1.58601 9.88837 -0.299167 -9.45523 -41.3907 3.52027 3.26514 7.89249 -4.38381 -1.1099 15.2632 -7.68306 11.2366 -0.91548 -10.1989 -1.59028e-015 -4.77083e-015 -3.18055e-015 -76.4162 -2.8447 -47.4377 -16.4312 42.3223 -107.94 6.54677 9.62745 -1.04006 23.6595 -3.122 -14.5198 69.022 -29.1702 47.5463 -17.9822 23.7347 144.568 -0.618917 9.87879 -26.6139 20.3656 -2.97455 -2.89161 -23.1136 32.6995 17.908 -5.77374 13.5064 0.965572 31.9197 -44.4666 21.2378 
-23.7439 94.8515 -55.1544 3.03712 -4.10926 52.4349 -10.5339 -18.8248 -1.82656 4.40591 30.993 -6.02163 1.12691 10.6563 -0.231622 -9.95837 -43.3892 3.49948 3.24602 7.87054 -4.67716 -0.791151 15.2387 -8.29747 11.3588 -0.0517066 -9.62752 1.76556e-031 -3.18055e-015 3.18055e-015 -77.498 -3.56701 -48.291 -16.3718 42.4774 -108.229 6.54677 9.62745 -1.04006 23.1942 -2.82075 -13.5497 70.1381 -29.6561 49.1035 -19.1627 21.0203 146.442 2.57577 9.16582 -29.7089 20.3162 -2.54276 -4.09922 -22.1836 32.1962 17.5298 -6.04616 13.8454 1.03151 33.0387 -45.8483 21.4826 
-23.7344 94.7504 -55.033 3.11071 -4.45788 52.7407 -10.0151 -18.637 -2.35814 3.45609 31.3941 -5.68159 1.81668 11.0623 -0.34519 -9.63564 -44.9055 4.61039 3.39232 7.90014 -4.84948 -0.637082 15.2809 -8.59133 11.5875 0.650519 -9.46383 -1.59028e-015 -3.18055e-015 3.18055e-015 -78.6026 -3.90956 -48.7414 -16.7013 42.8902 -108.502 6.54677 9.62745 -1.04006 22.8474 -2.6411 -12.983 70.7452 -29.651 50.4674 -20.4901 17.5942 148.191 6.07409 8.19057 -32.8405 20.325 -2.01522 -5.04144 -21.6048 31.7961 17.1157 -6.21747 14.3086 1.0858 34.3222 -46.9282 22.301 
-23.7151 94.7747 -54.892 3.18396 -4.73259 53.0396 -9.84182 -18.3993 -1.48121 4.18075 31.8174 -6.68322 1.99548 9.32112 -0.355536 -9.25676 -42.0976 4.13469 3.39466 7.8675 -4.93041 -0.753041 15.2136 -8.70085 12.0735 1.31409 -9.59113 -8.82781e-032 -1.59028e-015 -3.18055e-015 -79.4233 -3.85062 -49.0956 -16.7751 43.0723 -108.38 6.54677 9.62745 -1.04006 22.7925 -2.54156 -12.6068 70.7888 -29.3245 51.2693 -21.9675 13.5939 149.771 9.82257 6.94973 -35.8006 20.4503 -1.57862 -5.46137 -21.0038 31.4363 16.4908 -6.74551 14.2987 1.18629 34.4026 -47.3321 21.9789 
-23.6919 94.8407 -54.7283 3.06079 -4.82271 53.229 -9.55761 -18.2697 -1.12453 4.38437 31.8097 -7.02182 1.62897 8.64651 -0.296289 -9.38522 -41.0763 3.5086 3.45549 7.83516 -4.96626 -0.619405 15.1542 -8.77286 12.2584 1.26085 -9.68186 8.82781e-032 1.59028e-015 -3.18055e-015 -79.8734 -3.6345 -49.3821 -16.7763 43.0408 -108.589 6.54677 9.62745 -1.04006 22.2769 -2.39854 -12.2332 70.907 -28.9617 52.2738 -23.5646 9.39542 150.97 13.5832 5.53243 -38.379 20.7372 -1.38111 -5.46699 -20.6204 30.9581 15.8718 -7.60477 15.195 1.40454 35.4553 -48.4793 22.3388 
-23.6657 95.0308 -54.5873 3.30565 -4.81411 53.4966 -9.41482 -17.6001 -2.05918 3.27373 31.2479 -5.7802 1.92839 9.02741 -0.342637 -9.76963 -41.7323 3.13777 3.15817 7.71578 -4.97825 -0.982092 14.9412 -8.77645 12.6559 2.06347 -10.1269 3.18055e-015 3.18055e-015 -9.54166e-015 -79.774 -3.32784 -48.8464 -16.7377 42.8745 -108.836 6.54677 9.62745 -1.04006 22.4151 -2.34625 -11.9659 69.958 -28.2969 52.4441 -25.4999 5.11713 151.589 17.0095 4.10163 -40.4918 20.7145 -1.11484 -5.23611 -20.4482 30.7922 15.3415 -7.75883 15.2486 1.43853 34.4459 -47.9314 21.3893 
-23.5837 95.1519 -54.5372 3.20829 -4.77597 53.7934 -9.80619 -17.5289 -0.440816 5.24554 31.3573 -7.93408 1.55994 6.413 -0.27087 -8.85446 -36.8778 2.63303 3.2833 7.71518 -5.00894 -1.22818 14.931 -8.75413 13.1002 1.963 -10.2538 0 0 -3.18055e-015 -79.2107 -2.76737 -49.2999 -16.4929 42.3709 -108.795 6.54677 9.62745 -1.04006 22.2395 -2.28039 -11.7637 69.4165 -27.4476 53.0999 -28.0871 1.14282 151.197 19.6042 2.89697 -42.1562 21.0121 -1.36647 -4.95181 -20.8568 30.8838 15.0161 -7.17761 14.6838 1.29065 33.2544 -46.6355 20.9485 
-23.4909 95.403 -54.4081 3.12188 -4.54542 54.0998 -10.0433 -17.1609 -0.410255 5.51768 30.6353 -8.17215 1.58394 5.99876 -0.270825 -8.82819 -36.0733 2.32007 3.09566 7.49197 -5.02677 -1.22393 14.5213 -8.86625 12.8063 2.27255 -10.7348 1.76556e-031 1.59028e-015 -6.36111e-015 -79.3043 -2.61069 -48.8346 -16.576 42.5945 -109.066 6.54677 9.62745 -1.04006 21.6763 -2.04984 -11.0149 68.4089 -27.107 53.4512 -31.5561 -1.89357 149.535 21.4168 1.93538 -43.5915 21.135 -1.78341 -4.87846 -21.5002 31.1397 14.8215 -7.29261 13.0382 1.21874 30.0865 -43.5697 19.2087 
-23.3748 95.5513 -54.4058 3.05715 -4.39085 54.3661 -10.3358 -17.2728 -0.607139 5.59282 31.4831 -7.57871 3.26018 1.01125 -0.361796 -5.95729 -26.6967 3.34944 3.05396 7.39103 -5.07311 -1.67573 14.3331 -8.90659 13.2063 2.41299 -10.6254 1.76556e-031 -3.18055e-015 3.18055e-015 -78.9678 -2.68103 -48.9628 -16.5425 42.5058 -108.969 6.54677 9.62745 -1.04006 21.5507 -1.97504 -10.7446 67.5197 -26.2142 54.2085 -35.9416 -3.34446 146.435 22.4636 1.25192 -44.847 21.3405 -2.13773 -5.34185 -22.5549 31.0274 15.5358 -6.45922 13.0193 1.06751 29.295 -42.4531 19.1412 
-23.2823 95.5829 -54.4481 3.14987 -4.30579 54.4342 -10.6245 -17.179 -0.600488 5.69728 31.6557 -7.3922 3.92378 -0.31794 -0.375443 -5.51738 -24.591 3.18614 3.03415 7.27666 -5.0996 -1.82688 14.1158 -8.93012 12.8583 3.04867 -10.5354 -1.59028e-015 0 -0 -78.9193 -2.72678 -48.6513 -16.4733 42.4679 -109.147 6.54677 9.62745 -1.04006 20.7909 -1.66711 -9.67801 66.6963 -26.2365 55.0065 -40.7494 -3.00806 142.467 24.0338 0.374295 -45.9111 21.2957 -2.25952 -5.2865 -22.6962 31.0747 15.4986 -7.15498 13.7865 1.23588 30.1077 -43.2214 19.6448 
-23.1495 95.4838 -54.5146 3.05844 -4.23293 54.4779 -11.125 -17.2981 -0.69311 6.49783 31.7282 -7.44711 3.70346 0.130029 -0.372787 -6.32809 -26.0991 2.27405 3.12477 7.045 -5.25139 -1.82946 13.6573 -9.21747 12.362 3.87294 -10.3528 -7.95139e-016 4.77083e-015 -6.36111e-015 -79.0175 -3.03454 -48.2086 -16.5882 42.8315 -109.21 6.54677 9.62745 -1.04006 19.6315 -1.19198 -7.89098 65.7488 -26.6912 55.4997 -45.4758 -1.41318 138.314 26.4557 -0.754467 -46.4569 21.1872 -2.43507 -5.49247 -22.5406 31.0586 15.8173 -8.14684 15.1912 1.51232 32.3341 -45.4981 20.7434 
